<svg id="SvgjsSvg1001" width="288" height="288" xmlns="http://www.w3.org/2000/svg" version="1.1" xmlns:xlink="http://www.w3.org/1999/xlink" xmlns:svgjs="http://svgjs.com/svgjs"><defs id="SvgjsDefs1002"></defs><g id="SvgjsG1008"><svg xmlns="http://www.w3.org/2000/svg" enable-background="new 0 0 70 70" viewBox="0 0 70 70" width="288" height="288"><path d="M45.338623,11.0065918H14.4987793c-1.9287109,0-3.4980469,1.5639648-3.4980469,3.4868164v41.0019531
	c0,1.9287109,1.5693359,3.4980469,3.4980469,3.4980469H45.338623c1.9287109,0,3.4980469-1.5693359,3.4980469-3.4980469V42.144043
	l9.1123047-9.1125488c1.4003906-1.3999023,1.4003906-3.6777344,0-5.0776367l-2.4541016-2.4545898
	c-1.4003906-1.4003906-3.6777344-1.4003906-5.078125,0l-1.5800781,1.5801392V14.4934082
	C48.8366699,12.5705566,47.267334,11.0065918,45.338623,11.0065918z M40.456543,47.6958008l-4.7038574-4.7038574
	L48.43927,30.3049927l4.7040405,4.7040405L40.456543,47.6958008z M34.9246826,44.9920654l3.5315552,3.5315552l-4.5199585,0.9883423
	L34.9246826,44.9920654z M46.8366699,55.4953613c0,0.8261719-0.671875,1.4980469-1.4980469,1.4980469H14.4987793
	c-0.8261719,0-1.4980469-0.671875-1.4980469-1.4980469V14.4934082c0-0.8198242,0.671875-1.4868164,1.4980469-1.4868164H45.338623
	c0.8261719,0,1.4980469,0.6669922,1.4980469,1.4868164v14.5860596l-8.0836182,8.0838623H18.7185059c-0.5527344,0-1,0.4477539-1,1
	s0.4472656,1,1,1h18.0346069l-3.121521,3.121582c-0.0849609,0.0846558-0.1463623,0.1864624-0.1954956,0.2943726
	c-0.0147095,0.0321045-0.0249634,0.0636597-0.0360107,0.0968628c-0.0115967,0.034668-0.0303345,0.0664673-0.0380249,0.102417
	l-0.156189,0.7143555H18.7185059c-0.5527344,0-1,0.4477539-1,1s0.4472656,1,1,1h14.0501099l-0.9464722,4.3291016H18.7185059
	c-0.5527344,0-1,0.4477539-1,1s0.4472656,1,1,1H32.626709c0.0712891,0,0.1425781-0.0073242,0.2138672-0.0229492l7.8300781-1.7119141
	c0.036377-0.0079956,0.0687256-0.0269775,0.1038208-0.0388794c0.0325928-0.0109863,0.0634766-0.0211792,0.0949707-0.0355835
	c0.1079712-0.0493774,0.2099609-0.1108398,0.2943726-0.1955566l5.6728516-5.6730347V55.4953613z M51.8308105,26.9133301
	c0.6210938-0.6201172,1.6289063-0.6201172,2.25,0l2.4541016,2.4545898c0.6201172,0.6201172,0.6201172,1.6293945,0,2.2495117
	l-1.9775391,1.9775391l-4.7041016-4.7041016L51.8308105,26.9133301z" fill="#ffffff" class="svgShape color000000-0 selectable"></path><path d="M18.7185059 20.1750488h22.4042969c.5527344 0 1-.4477539 1-1s-.4472656-1-1-1H18.7185059c-.5527344 0-1 .4477539-1 1S18.1657715 20.1750488 18.7185059 20.1750488zM18.7185059 26.5046387h22.4042969c.5527344 0 1-.4477539 1-1s-.4472656-1-1-1H18.7185059c-.5527344 0-1 .4477539-1 1S18.1657715 26.5046387 18.7185059 26.5046387zM18.7185059 32.8337402h22.4042969c.5527344 0 1-.4477539 1-1s-.4472656-1-1-1H18.7185059c-.5527344 0-1 .4477539-1 1S18.1657715 32.8337402 18.7185059 32.8337402z" fill="#ffffff" class="svgShape color000000-1 selectable"></path></svg></g></svg>